# xmcd
# Track frame offsets:
# 150
# 14395
# 31227
# 47120
# 63420
# 78953
#
# Disc length: 1289 seconds
# Revision: 0
# Processed by: cddbd v1.5.2PL0 Copyright (c) Steve Scherf et al.
# Submitted via: VisiTrax 2.11.2.271 - For more info visit www.synapsa.com
#
DISCID=41050706
DTITLE=Case, Steve and The Common Trees - Leaving Home
DYEAR=2011
DGENRE=Country
TTITLE0=Four Walls
TTITLE1=Hell or High Water
TTITLE2=Leaving Home
TTITLE3=Home Town
TTITLE4=Runner, The
TTITLE5=Ballad of Joe
EXTD=
EXTT0=
EXTT1=
EXTT2=
EXTT3=
EXTT4=
EXTT5=
PLAYORDER=
